<svg xmlns="http://www.w3.org/2000/svg" version="1.1" viewBox="-5.0 -10.0 110.0 135.0">
 <path d="m93.293 27.508-0.054688-0.31641h-86.477l-0.054688 0.31641c-0.26172 1.4727-0.39062 2.9648-0.39062 4.457v36.07c0 14.145 11.508 25.645 25.648 25.645h36.066c14.141 0 25.648-11.504 25.648-25.645v-36.07c0.003906-1.4961-0.125-2.9844-0.38672-4.457zm-58.84 21.293-4.0742 12.641c-0.16016 0.5-0.63281 0.83984-1.1602 0.83984-0.52344 0-0.99219-0.33594-1.1484-0.83594l-2.9297-9.0664-2.918 9.0625c-0.16016 0.50391-0.63281 0.83984-1.1602 0.83984s-0.98828-0.33984-1.1484-0.83984l-4.0781-12.645c-0.20703-0.63672 0.14062-1.3203 0.78125-1.5273 0.64062-0.20703 1.3242 0.14062 1.5273 0.78125l2.918 9.0625 2.9258-9.0625c0.15625-0.50391 0.62891-0.84375 1.1484-0.84375 0.52734 0 1 0.33984 1.1602 0.83984l2.918 9.0625 2.9258-9.0625c0.20703-0.63672 0.89062-0.98828 1.5273-0.78125 0.64062 0.21094 0.98438 0.90234 0.78516 1.5352zm22.582-0.003906-4.0781 12.645c-0.16016 0.5-0.63281 0.83984-1.1602 0.83984-0.52344 0-0.99219-0.33594-1.1484-0.83594l-2.9297-9.0664-2.918 9.0625c-0.16016 0.50391-0.63281 0.83984-1.1602 0.83984-0.52344 0-0.99219-0.33594-1.1484-0.83594l-4.0742-12.648c-0.20703-0.64062 0.14453-1.3203 0.78125-1.5273 0.63281-0.20703 1.3242 0.14844 1.5273 0.78125l2.918 9.0625 2.9258-9.0625c0.15625-0.50391 0.62891-0.84375 1.1484-0.84375 0.52734 0 1 0.33984 1.1602 0.83984l2.918 9.0625 2.9258-9.0625c0.20312-0.63281 0.88281-0.98828 1.5195-0.78125 0.64062 0.21094 1 0.89062 0.79297 1.5312zm22.574 0-4.0781 12.645c-0.15625 0.50391-0.62891 0.83984-1.1484 0.83984-0.52734 0-0.99609-0.33984-1.1602-0.83984l-2.918-9.0664-2.918 9.0664c-0.16016 0.50391-0.63281 0.83984-1.1602 0.83984-0.52344 0-0.99219-0.33594-1.1484-0.83594l-4.0781-12.648c-0.20703-0.64062 0.14453-1.3203 0.78125-1.5273 0.63281-0.20703 1.3242 0.14844 1.5273 0.78125l2.918 9.0664 2.918-9.0664c0.16016-0.5 0.63281-0.83984 1.1602-0.83984 0.52344 0 0.99219 0.33594 1.1484 0.83984l2.9297 9.0664 2.918-9.0625c0.20312-0.63672 0.89453-0.98828 1.5273-0.78125 0.64062 0.20312 0.98828 0.88672 0.78125 1.5234zm5.4062 13.863h-0.75c-0.66797 0-1.207-0.54688-1.207-1.2148 0-0.66797 0.53516-1.2148 1.207-1.2148h0.75c0.66797 0 1.2148 0.54297 1.2148 1.2148 0 0.66797-0.54688 1.2148-1.2148 1.2148zm7.6367-37.895h-85.316l0.15625-0.5c3.3672-10.648 13.273-17.949 24.473-17.949h36.066c11.191 0 21.109 7.3047 24.465 17.949z"/>
<text x="0.0" y="117.5" font-size="5.0" font-weight="bold" font-family="Arbeit Regular, Helvetica, Arial-Unicode, Arial, Sans-serif" fill="#000000">Created by miftakhudin</text><text x="0.0" y="122.5" font-size="5.0" font-weight="bold" font-family="Arbeit Regular, Helvetica, Arial-Unicode, Arial, Sans-serif" fill="#000000">from Noun Project</text></svg>