<svg xmlns="http://www.w3.org/2000/svg" xmlns:xlink="http://www.w3.org/1999/xlink" version="1.1" x="0px" y="0px" viewBox="0 0 64 80" style="enable-background:new 0 0 64 64;" xml:space="preserve"><g><path d="M46.5,10.2H17.4c-6.1,0-11.1,5-11.1,11.2v21.2c0,6.2,5,11.2,11.1,11.2h29.1c6.2,0,11.2-5,11.2-11.2V21.4   C57.7,15.2,52.7,10.2,46.5,10.2z M42.8,35l-16.4,9.4c-0.5,0.3-1.1,0.4-1.7,0.4c-0.6,0-1.2-0.2-1.7-0.5c-1.1-0.6-1.7-1.7-1.7-2.9   V22.6c0-1.2,0.6-2.3,1.7-2.9c1.1-0.6,2.3-0.6,3.4,0l16.4,9.5h0c1.1,0.6,1.7,1.7,1.7,2.9S43.9,34.4,42.8,35z"/><path d="M41.8,30.9C41.8,30.9,41.8,30.9,41.8,30.9l-16.4-9.5c-0.2-0.1-0.5-0.2-0.7-0.2c-0.2,0-0.5,0.1-0.7,0.2   c-0.4,0.2-0.7,0.7-0.7,1.2v18.9c0,0.5,0.2,0.9,0.7,1.2c0.4,0.2,0.9,0.3,1.4,0l16.4-9.4c0.4-0.2,0.7-0.7,0.7-1.2   S42.2,31.1,41.8,30.9z"/></g><text x="0" y="79" fill="#000000" font-size="5px" font-weight="bold" font-family="'Helvetica Neue', Helvetica, Arial-Unicode, Arial, Sans-serif">Created by Ratna mustofa</text><text x="0" y="84" fill="#000000" font-size="5px" font-weight="bold" font-family="'Helvetica Neue', Helvetica, Arial-Unicode, Arial, Sans-serif">from the Noun Project</text></svg>